<svg width="512.001" height="744.001" xmlns="http://www.w3.org/2000/svg"><path fill="none" id="canvas_background" d="M-1-1h514.001v746.001H-1z"/><g id="svg_1"><g id="svg_2"><path id="svg_3" d="M505.942 598.42 35.306 127.787c-8.076-8.077-21.172-8.077-29.248 0-8.077 8.076-8.077 21.17 0 29.248L476.694 627.67a20.616 20.616 0 0 0 14.625 6.058 20.615 20.615 0 0 0 14.624-6.057c8.075-8.078 8.075-21.173-.001-29.25z"/></g></g><g id="svg_4"><g id="svg_5"><path id="svg_6" d="M448.532 549.577H63.467c-12.187 0-22.102-9.915-22.102-22.102V292.157c0-12.188 9.916-22.102 22.102-22.102h64.177c11.422 0 20.682-9.26 20.682-20.682s-9.26-20.682-20.682-20.682H63.467C28.472 228.69 0 257.16 0 292.157v235.318c0 34.995 28.472 63.467 63.467 63.467h385.065c11.423 0 20.682-9.26 20.682-20.682s-9.259-20.683-20.682-20.683z"/></g></g><g id="svg_7"><g id="svg_8"><path id="svg_9" d="M448.533 228.69h-74.501l-36.644-54.968a20.685 20.685 0 0 0-17.209-9.211H191.823c-11.422 0-20.682 9.26-20.682 20.682s9.26 20.682 20.682 20.682h117.286l36.644 54.968a20.684 20.684 0 0 0 17.209 9.21h85.57c12.188 0 22.103 9.915 22.103 22.102V491.96c0 11.423 9.259 20.682 20.682 20.682 11.423 0 20.682-9.26 20.683-20.682V292.157c.001-34.995-28.47-63.467-63.467-63.467z"/></g></g><g id="svg_10"><g id="svg_11"><path id="svg_12" d="M337.849 430.826c-9.427-6.451-22.296-4.04-28.747 5.388-20.205 29.528-60.668 37.114-90.196 16.908-29.529-20.204-37.113-60.665-16.909-90.194a64.617 64.617 0 0 1 16.909-16.91c9.427-6.45 11.839-19.321 5.388-28.747-6.451-9.427-19.323-11.84-28.748-5.388a105.84 105.84 0 0 0-27.687 27.687c-33.085 48.352-20.665 114.606 27.687 147.69 18.309 12.529 39.176 18.53 59.846 18.53 33.916 0 67.287-16.173 87.845-46.216 6.451-9.426 4.038-22.297-5.388-28.748z"/></g></g></svg>