<svg width="512.001" height="744.001" xmlns="http://www.w3.org/2000/svg">

 <g>
  <title>background</title>
  <rect fill="none" id="canvas_background" height="746.001" width="514.001" y="-1" x="-1"/>
 </g>
 <g>
  <title>Layer 1</title>
  <g id="svg_1">
   <g id="svg_2">
    <path id="svg_3" d="m505.942,598.42081l-470.636,-470.635c-8.076,-8.077 -21.172,-8.077 -29.248,0c-8.077,8.076 -8.077,21.171 0,29.248l470.636,470.636c4.038,4.039 9.332,6.058 14.625,6.058c5.293,0 10.587,-2.019 14.624,-6.057c8.075,-8.078 8.075,-21.173 -0.001,-29.25z"/>
   </g>
  </g>
  <g id="svg_4">
   <g id="svg_5">
    <path id="svg_6" d="m448.532,549.57681l-385.065,0c-12.187,0 -22.102,-9.915 -22.102,-22.102l0,-235.318c0,-12.188 9.916,-22.102 22.102,-22.102l64.177,0c11.422,0 20.682,-9.26 20.682,-20.682s-9.26,-20.682 -20.682,-20.682l-64.177,0c-34.995,-0.001 -63.467,28.47 -63.467,63.466l0,235.318c0,34.995 28.472,63.467 63.467,63.467l385.065,0c11.423,0 20.682,-9.259 20.682,-20.682s-9.259,-20.683 -20.682,-20.683z"/>
   </g>
  </g>
  <g id="svg_7">
   <g id="svg_8">
    <path id="svg_9" d="m448.533,228.68981l-74.501,0l-36.644,-54.968c-3.837,-5.754 -10.294,-9.211 -17.209,-9.211l-128.356,0c-11.422,0 -20.682,9.26 -20.682,20.682s9.26,20.682 20.682,20.682l117.286,0l36.644,54.968c3.837,5.754 10.294,9.21 17.209,9.21l85.57,0c12.188,0 22.103,9.915 22.103,22.102l0,199.806c0,11.423 9.259,20.682 20.682,20.682c11.423,0 20.682,-9.259 20.683,-20.682l0,-199.804c0.001,-34.995 -28.47,-63.467 -63.467,-63.467z"/>
   </g>
  </g>
  <g id="svg_10">
   <g id="svg_11">
    <path id="svg_12" d="m337.849,430.82581c-9.427,-6.451 -22.296,-4.039 -28.747,5.388c-20.205,29.528 -60.668,37.114 -90.196,16.908c-29.529,-20.204 -37.113,-60.665 -16.909,-90.194c4.557,-6.661 10.246,-12.35 16.909,-16.909c9.427,-6.451 11.839,-19.322 5.388,-28.748c-6.451,-9.427 -19.323,-11.839 -28.748,-5.388c-10.909,7.465 -20.224,16.78 -27.687,27.687c-33.085,48.352 -20.665,114.606 27.687,147.691c18.309,12.528 39.176,18.529 59.846,18.529c33.916,0 67.287,-16.173 87.845,-46.216c6.451,-9.426 4.038,-22.297 -5.388,-28.748z"/>
   </g>
  </g>
  <g id="svg_13"/>
  <g id="svg_14"/>
  <g id="svg_15"/>
  <g id="svg_16"/>
  <g id="svg_17"/>
  <g id="svg_18"/>
  <g id="svg_19"/>
  <g id="svg_20"/>
  <g id="svg_21"/>
  <g id="svg_22"/>
  <g id="svg_23"/>
  <g id="svg_24"/>
  <g id="svg_25"/>
  <g id="svg_26"/>
  <g id="svg_27"/>
 </g>
</svg>